<?xml version="1.0" encoding="UTF-8"?>
<svg width="700pt" height="700pt" version="1.1" viewBox="0 0 700 700" xmlns="http://www.w3.org/2000/svg" xmlns:xlink="http://www.w3.org/1999/xlink">
 <defs>
 </defs>
 <g>
  <path d="m126.49 494.63 137.07 63.32c11.094 5.1172 24.23 0.28516 29.352-10.805 5.1133-11.094 0.28516-24.227-10.805-29.352v0.007813l-91.406-42.23c126.13-31.945 213.31-84.922 272.59-144.26 69.723-69.699 100.45-147.39 113.54-207.29 13.109-59.992 8.9062-102.5 8.7617-104.13-1.2383-12.148-12.082-21.004-24.23-19.777-5.2773 0.53516-9.9297 2.8867-13.402 6.3594-4.5312 4.5312-7.0703 11.004-6.3789 17.875l0.007812 0.007813 0.007813 0.14453c0.29688 3.1562 3.2617 42.18-9.1172 95.148-12.414 53.035-39.844 119.76-100.46 180.39-53.445 53.398-133.04 102.61-253.19 132.91l40.77-90.188c5.0352-11.129 0.09375-24.238-11.043-29.266-8.6289-3.8945-18.441-1.7969-24.758 4.5273-1.832 1.832-3.375 4.0195-4.5117 6.5273l-63.684 140.9c-4.9922 11.066-0.13672 24.094 10.879 29.18z"/>
  <use x="113.648438" y="658.824219" xlink:href="#v"/>
  <use x="137.820312" y="658.824219" xlink:href="#b"/>
  <use x="154.066406" y="658.824219" xlink:href="#a"/>
  <use x="176.410156" y="658.824219" xlink:href="#e"/>
  <use x="198.636719" y="658.824219" xlink:href="#c"/>
  <use x="214.382812" y="658.824219" xlink:href="#a"/>
  <use x="236.726563" y="658.824219" xlink:href="#g"/>
  <use x="271.773438" y="658.824219" xlink:href="#l"/>
  <use x="295.355469" y="658.824219" xlink:href="#k"/>
  <use x="328.296875" y="658.824219" xlink:href="#j"/>
  <use x="352.019531" y="658.824219" xlink:href="#c"/>
  <use x="367.765625" y="658.824219" xlink:href="#e"/>
  <use x="389.996094" y="658.824219" xlink:href="#b"/>
  <use x="417.710938" y="658.824219" xlink:href="#e"/>
  <use x="439.9375" y="658.824219" xlink:href="#f"/>
  <use x="463.390625" y="658.824219" xlink:href="#g"/>
  <use x="498.4375" y="658.824219" xlink:href="#u"/>
  <use x="523.933594" y="658.824219" xlink:href="#f"/>
  <use x="547.382812" y="658.824219" xlink:href="#i"/>
  <use x="566.910156" y="658.824219" xlink:href="#h"/>
  <use x="590.359375" y="658.824219" xlink:href="#d"/>
  <use x="612.992188" y="658.824219" xlink:href="#b"/>
  <use x="640.707031" y="658.824219" xlink:href="#t"/>
  <use x="668.050781" y="658.824219" xlink:href="#a"/>
  <use x="690.390625" y="658.824219" xlink:href="#s"/>
  <use x="113.648438" y="691.765625" xlink:href="#r"/>
  <use x="127.976562" y="691.765625" xlink:href="#b"/>
  <use x="144.222656" y="691.765625" xlink:href="#d"/>
  <use x="166.855469" y="691.765625" xlink:href="#q"/>
  <use x="212.648438" y="691.765625" xlink:href="#c"/>
  <use x="228.394531" y="691.765625" xlink:href="#h"/>
  <use x="251.84375" y="691.765625" xlink:href="#a"/>
  <use x="285.65625" y="691.765625" xlink:href="#p"/>
  <use x="313.222656" y="691.765625" xlink:href="#d"/>
  <use x="335.855469" y="691.765625" xlink:href="#o"/>
  <use x="359.304688" y="691.765625" xlink:href="#f"/>
  <use x="394.226562" y="691.765625" xlink:href="#n"/>
  <use x="418.367188" y="691.765625" xlink:href="#b"/>
  <use x="434.613281" y="691.765625" xlink:href="#d"/>
  <use x="457.246094" y="691.765625" xlink:href="#m"/>
  <use x="468.535156" y="691.765625" xlink:href="#a"/>
  <use x="490.878906" y="691.765625" xlink:href="#i"/>
  <use x="510.40625" y="691.765625" xlink:href="#c"/>
 </g>
</svg>
